<?xml version="1.0" encoding="utf-8"?>
<!-- Generator: Adobe Illustrator 16.0.0, SVG Export Plug-In . SVG Version: 6.00 Build 0)  -->
<!DOCTYPE svg PUBLIC "-//W3C//DTD SVG 1.1//EN" "http://www.w3.org/Graphics/SVG/1.1/DTD/svg11.dtd">
<svg version="1.1" id="Capa_1" xmlns="http://www.w3.org/2000/svg" xmlns:xlink="http://www.w3.org/1999/xlink" x="0px" y="0px"
	 width="48.882px" height="48.908px" viewBox="0 0 48.882 48.908" enable-background="new 0 0 48.882 48.908" xml:space="preserve">
<g>
	<path fill="#040606" d="M48.134,26.596c-0.484-0.576-1.198-0.911-1.95-0.911h-6.659c-1.167,0-2.181,0.791-2.468,1.922
		c-1.401,5.523-6.385,9.616-12.347,9.616c-5.962,0-10.946-4.092-12.347-9.616c-0.287-1.129-1.303-1.922-2.468-1.922h-6.66
		c-0.752,0-1.467,0.333-1.951,0.909c-0.484,0.577-0.688,1.338-0.559,2.079C2.724,40.115,12.695,48.815,24.71,48.815
		c12.015,0,21.986-8.7,23.983-20.143C48.823,27.932,48.618,27.172,48.134,26.596z"/>
	<path fill="#040606" d="M3.249,23.157h6.666c1.162,0,2.174-0.785,2.464-1.911c1.42-5.497,6.389-9.562,12.331-9.562
		s10.911,4.064,12.331,9.562c0.291,1.124,1.305,1.911,2.465,1.911h6.666c0.754,0,1.469-0.334,1.953-0.912
		c0.483-0.579,0.687-1.341,0.555-2.084C46.652,8.755,36.699,0.093,24.71,0.093c-11.988,0-21.942,8.663-23.969,20.068
		c-0.132,0.742,0.072,1.504,0.555,2.082C1.78,22.821,2.496,23.157,3.249,23.157z"/>
	<path fill="#040606" d="M16.81,24.454c0,4.356,3.544,7.901,7.9,7.901s7.901-3.545,7.901-7.901c0-4.356-3.545-7.901-7.901-7.901
		S16.81,20.097,16.81,24.454z M28.689,24.454c0,2.195-1.784,3.979-3.979,3.979c-2.194,0-3.979-1.784-3.979-3.979
		c0-2.194,1.785-3.979,3.979-3.979C26.905,20.474,28.689,22.259,28.689,24.454z"/>
</g>
</svg>
